<svg xmlns="http://www.w3.org/2000/svg" viewBox="0 0 512 512" role="img" aria-label="Lucy Scribe">
  <defs>
    <linearGradient id="g" x1="0%" y1="0%" x2="100%" y2="100%">
      <stop offset="0%" stop-color="#1e3a5f"/>
      <stop offset="100%" stop-color="#2563eb"/>
    </linearGradient>
  </defs>
  <rect width="512" height="512" rx="96" fill="url(#g)"/>
  <path fill="#fff" d="M256 120c-61.9 0-112 45.6-112 102v12c0 56.4 50.1 102 112 102s112-45.6 112-102v-12c0-56.4-50.1-102-112-102zm0 36c41.2 0 76 28.8 76 66v12c0 37.2-34.8 66-76 66s-76-28.8-76-66v-12c0-37.2 34.8-66 76-66z"/>
  <rect x="196" y="338" width="120" height="24" rx="12" fill="#93c5fd"/>
  <path fill="#fff" d="M160 380h192v20H160z" opacity=".6"/>
</svg>
